<?xml version="1.0" standalone="no"?><!DOCTYPE svg PUBLIC "-//W3C//DTD SVG 1.1//EN" "http://www.w3.org/Graphics/SVG/1.1/DTD/svg11.dtd"><svg t="1727592717901" class="icon" viewBox="0 0 1024 1024" version="1.1" xmlns="http://www.w3.org/2000/svg" p-id="13998" xmlns:xlink="http://www.w3.org/1999/xlink" width="200" height="200"><path d="M312 453V346h186c-1.2 0.7-2.4 1.4-3.7 1.9-9 4-17 9.2-22.4 17.7-1 2.4-2 4.9-2.9 7.3-0.3 1-0.6 2.1-0.9 3.1l-3 12-2.1 9-2.7 12c-0.1 0.6-0.2 1.3-0.3 1.9-0.9 3.4-1.9 6.7-2.8 10.1 0 0.7-0.1 1.4-0.1 2-1 3.3-2 6.6-2.9 10-1 2.3-1.9 4.6-2.9 6.9-0.5 1-1.1 2-1.6 3.1-7-19.5-6.5-38.8 1.9-58.2-2.5 1.4-4.6 3-5.5 5.1-6.2 14.8-6.3 30-2.6 45.4 0.8 3.2 1.1 6.5 1.6 9.8-1-1.9-2.2-3.7-3-5.7-3.7-10.2-9.4-19.2-18.9-24.3-11.7-6.3-24.2-11.4-36.5-16.7-2.1-0.9-5-0.1-7.6-0.1 0.7 1.2 1.5 1.5 2.4 1.8 12.6 5.3 25.7 9.7 37.8 16 10.9 5.6 19.2 19.1 20.9 30.2-1.7-0.4-3.3-0.8-4.9-1.2-1.8-0.4-3.5-0.8-5.3-1.2-0.7-0.2-1.4-0.5-2.1-0.7-1.6-0.7-3.3-1.3-4.9-2-4.7-1.7-9.4-3.4-14-5.2-1.2-0.6-2.5-1.2-3.7-1.8-5.3-1.8-10.7-3.5-16-5.3-3.4-1-6.8-2.1-10.2-3.1-3.3-0.6-6.6-1.3-9.9-2l-6.9-1.8c-5.5-0.1-11-0.7-16.4 0-4.2 0.5-8.8 1.7-12.2 4.1-9.9 6.8-17.7 15.4-21.7 26.9zM456 565H312V458c3.5 9.3 11 14.4 19.5 18.3 4.9 2.3 9.7 4.9 14.6 7.3 11.6 5.7 23.3 11.5 34.9 17.2 0.7 0.1 1.3 0.2 2 0.2 0.3 1 0.7 2 1 3l3.9 4.2c1.3 2 2.6 3.9 3.9 5.9 4 5.3 8.1 10.7 12.1 16 2.4 2.3 4.8 4.6 7.1 7 3 2.6 6 5.2 9.1 7.8 7.6 5 15.2 9.9 22.8 14.9 3 1.1 6.1 2.2 9.1 3.2 1.3 0.6 2.7 1.3 4 2zM557 498v67h-96c0.3-0.4 0.6-0.7 0.9-1.1l5.1-1.2 6.1-6.1c2.9-5.8 2.5-11.7 1-17.7l-0.9-4.2c-1-3.6-2.1-7.1-3.1-10.7-1.8-5-1.6-10.9-7-14.1v-2c-0.3-1.8-0.2-3.7-0.8-5.3-2.7-7.3-5.5-14.5-8.3-21.8 0.1-0.3 0.1-0.6 0.1-0.8 1.6-0.5 3.2-1 4.7-1.5 1.8 1 4 1.6 5.4 3 2.5 2.6 4.5 5.6 6.8 8.5 1 1.4 1.9 2.9 2.9 4.3 0.7 1 1.4 2 2 2.9 1.6 2.1 3.2 4.2 4.7 6 4.8-2.2 2.8-5.4 2.5-8.2-0.4-2.4-0.9-4.7-1.3-7.1v-5.8c2.3 2.1 3.8 3.4 5.3 4.8 1.6 1.7 3.3 3.4 4.9 5 1.5 1.8 3.1 3.5 4.6 5.3v0.2c0.8 0.5 1.6 0.9 2.4 1.4l16.8 17.1c2.1 1.9 4.2 3.9 6.2 5.8 3.3 1.6 6.6 3.3 10 4.9 0.7-0.2 1.5-0.3 2.2-0.5 1.6-0.5 3.3-0.9 4.9-1.4 6.3-1.1 9.1-6 11.9-10.8 0.3-0.8 0.6-1.5 0.9-2.3l0.1-0.4c1.6-4.3 3.3-8.8 5-13.2zM505 346h52v133c-0.3-0.1-0.6-0.1-0.9-0.1-1-5.3-2.1-10.6-3.1-15.9-0.7-2.7-1.4-5.3-2.2-8-1-2.8-2.1-5.6-3.1-8.3-4.4-6.6-8.8-13.1-13.2-19.7l-2.7-6.9c-1.3-12.7-2.6-25.3-3.9-38-1.6-15.9-4.3-31.1-22.9-36.1z" fill="#FEFEFE" p-id="13999"></path><path d="M381 500.8c-11.6-5.7-23.3-11.5-34.9-17.2-4.9-2.4-9.7-5-14.6-7.3-8.5-4-15.9-9.1-19.5-18.3v-5c4-11.5 11.8-20.1 21.6-26.7 3.4-2.3 8-3.6 12.2-4.1 5.4-0.7 10.9-0.1 16.4 0-6 4.8-6 4.8-1.1 10.8 0.3 1.7 0.6 3.4 0.8 5.2-0.1 0.3-0.1 0.6 0.1 0.9-0.8 3.6-1.6 7.2-2.5 10.8-0.6 2.4-1.3 4.8-2 7.2 2.7 0 5.4 0.1 8.1 0.1 0.5 0 1-0.3 1.4-0.4 5.4 0.3 2.1 4.7 3.3 7 0.1 3.4 0.1 6.8 0.2 10.1 1.8 1.3 3.7 2.7 5.5 4-0.4 3-0.8 6-1.1 9-0.9 0.8-1.9 1.6-2.8 2.4 1 0.9 1.9 2.2 3 2.5 2.2 0.4 4.5 0.2 6.8 0.3-0.1 0.9-0.1 1.8-0.2 2.8 0 0.7 0 1.5 0.1 2.2 0 0.6-0.1 1.3-0.1 1.9-0.3 0.6-0.5 1.2-0.7 1.8zM505 346c18.7 5 21.3 20.2 23 36.1 1.3 12.7 2.6 25.3 3.9 38-1.7 1.6-3.5 3.2-5.2 4.8-2.3 1-4.5 2.1-6.8 3.1-0.3 0.6-0.6 1.3-0.9 1.9-1.7 0.4-3.4 0.9-5 1.3-1.6-1.4-3.3-2.8-4.9-4.2 0.7-0.9 1.3-1.8 2-2.8 6.8 0.9 8.4-4.1 10.6-9.3-4.7 0.6-9.6-2.3-12.9 2.9-1.9-0.1-3.9-0.1-5.8-0.2-0.9-1.4-1.9-2.7-2.8-4.1 3.3-1.4 6.6-2.8 9.9-4.1 1-2 1.9-4 3.1-6.5-1.9-0.3-3.1-0.7-4.3-0.8-1.4-0.1-2.9 0-4.2 0-1.4-6.3-2.7-6.8-9.6-4.8-5.6-1.4-1.5-5.8-2.5-8.6-1.9-0.6-3.7-1.2-5.5-1.8 1.1-2.9 2.2-5.7 3.3-8.6 3.5-0.6 2.3-2.7 1.1-4.2-1.3-1.6-2.8-4.7-5.3-2.1-1.7 1.8-2.3 4.7-3.4 7.1-0.6 0-1.2 0.1-1.7 0.1-2.3-1.4-4.6-2.8-7-4.3-1-0.3-2-0.5-3-0.8h-0.1l0.9-8.4c5.4-8.5 13.5-13.6 22.4-17.7 1.3-0.6 2.5-1.3 3.7-1.9 2.3-0.1 4.6-0.1 7-0.1z" fill="#0B0C0E" p-id="14000"></path><path d="M461.8 563.9c-0.3 0.4-0.6 0.7-0.9 1.1h-2c-1.5-2-2.9-4-4.4-6 1.2-1.5 2.4-3.1 3.6-4.6 4.2 2.3 8.4 4.7 12.9 0.6 0.6 0.6 1.3 1.1 1.9 1.7l-6.1 6.1c-0.6-1.6-1.3-3.1-1.9-4.7-1.1 1.5-2.1 2.9-3.1 4.4-0.1 0.3 0.1 0.9 0 1.4z" fill="#15274B" p-id="14001"></path><path d="M557 498c-1.7 4.5-3.3 8.9-5 13.4 0-2.1 0.1-4.2 0.1-6.3-0.8-2.7-1.7-5.3-2.5-8 0.5-0.6 1-1.3 1.5-1.9 2-0.1 4-0.1 5.9-0.2v3z" fill="#141B21" p-id="14002"></path><path d="M557 495c-2 0.1-4 0.1-5.9 0.2-0.4-2.7-0.7-5.4-1.1-8.2l1.1-1.1c1.6 0.1 3.3 0.1 4.9 0.2 0.3 2.3 0.7 4.6 1 6.9v2z" fill="#276F8F" p-id="14003"></path><path d="M556 486.1c-1.6-0.1-3.3-0.1-4.9-0.2 0.3-1.6 0.6-3.3 0.9-4.9 1.4-0.7 2.8-1.4 4.1-2.1 0.3 0 0.6 0 0.9 0.1v4c-0.4 1-0.7 2-1 3.1zM454.6 559c1.5 2 2.9 4 4.4 6h-3c-1.3-0.7-2.7-1.3-4-2-0.3-1.3-0.6-2.7-0.9-4h3.5z" fill="#184E88" p-id="14004"></path><path d="M556 486.1c0.3-1 0.7-2.1 1-3.1v10c-0.4-2.3-0.7-4.6-1-6.9z" fill="#3F8D93" p-id="14005"></path><path d="M430 443.9c1.8 0.4 3.5 0.8 5.3 1.2 1.6 0.4 3.2 0.7 4.9 1.2-1.7-11.1-10-24.6-20.9-30.2-12.1-6.3-25.2-10.7-37.8-16-0.8-0.3-1.6-0.7-2.4-1.8 2.5 0 5.4-0.8 7.6 0.1 12.3 5.3 24.7 10.4 36.5 16.7 9.5 5.1 15.2 14.1 18.9 24.3 0.7 2 2 3.8 3 5.7v-0.1c-0.1 0.1-0.3 0.2-0.3 0.4 0 0.3 0.1 0.5 0.2 0.8l-5.1 5.1c-2.9-0.1-5.8-0.2-8.8-0.2-0.4-2.5-0.7-4.9-1.1-7.2z" fill="#141B21" p-id="14006"></path><path d="M445 445.1c-0.5-3.3-0.8-6.6-1.6-9.8-3.7-15.4-3.7-30.6 2.6-45.4 0.9-2.1 3-3.7 5.5-5.1-8.5 19.4-8.9 38.7-1.9 58.2-1.2 1-2.4 2-3.6 2.9-0.3-0.3-0.7-0.6-1-0.9v0.1z" fill="#141B21" p-id="14007"></path><path d="M457 423c0-0.7 0.1-1.4 0.1-2 4.3 2.2 5.1-1.8 6.9-4h4c0.2 3.8 2.2 5.8 6 6v6c-1.3 1.7-2.8 3.3-4 5-1.9 2.8-3.6 5.9-5.6 8.7-0.9 1.3-2.3 2.2-3.5 3.3h-1c-0.3-2.7-0.7-5.3-1-8 4.5-0.8 6.2-2.9 3-7.1 1.5-4.5-3.6-5-4.9-7.9z" fill="#2A798C" p-id="14008"></path><path d="M446 445.9c1.2-1 2.4-2 3.6-2.9 0.5-1 1.1-2 1.6-3.1 0.6 0.4 1.3 0.7 1.9 1.1l-0.9 5.1c-2.1 5.7-1.9 6.1 3.9 8 2.1 1.8 4.2 3.7 6.2 5.5-1.5 1.8-2.9 3.7-4.4 5.5-1.5-0.1-3.1-0.1-4.6-0.2-3.4-4.5-5.4-10.7-12.9-9.6-0.1-1.3-0.3-2.7-0.4-4l5.1-5.1c0.1-0.2 0.5-0.2 0.9-0.3z" fill="#1D2B55" p-id="14009"></path><path d="M379 425.9c3.4 1 6.8 2.1 10.2 3.1 0.6 2.7 1.2 5.3 1.9 8l-3 6c-2 0.7-4 1.4-6 2-2.7-3.3-6-0.7-9-1 1-2.7 2-5.3 3-8 5.7 0.3 4.3-2.9 3-6-0.1-1.4-0.1-2.7-0.1-4.1z" fill="#226080" p-id="14010"></path><path d="M465 388l3-12c0.7 1 1.3 2 2 3-0.7 4.8 1.4 6.6 6.1 6 1-0.1 2 0 2.9 0v6c-1.3 0.5-2.6 1-4 1.5-2.3 0.8-4.7 1.7-7 2.5-1-2.3-2-4.7-3-7z" fill="#1E548D" p-id="14011"></path><path d="M468 417h-4c-1.4-2-2.7-4.1-4.1-6.1 0.1-0.6 0.2-1.3 0.3-1.9l7.8-3.9c1 0.7 2 1.3 3 2 0.7 2 1.4 4.1 2 6.1v1.9c-1.7 0.5-3.3 1.2-5 1.9z" fill="#267089" p-id="14012"></path><path d="M361.1 433c-4.8-6.1-4.8-6.1 1.1-10.8l6.9 1.8v6c-2.7 1-5.4 2-8 3z" fill="#1A4E7B" p-id="14013"></path><path d="M391 437c-0.6-2.7-1.2-5.3-1.9-8 5.3 1.8 10.7 3.5 16 5.3-1.7 1.1-3.5 2.1-5.2 3.2-1.7 0-3.3-0.1-5-0.1-1.2-0.2-2.5-0.3-3.9-0.4z" fill="#141B21" p-id="14014"></path><path d="M400 437.4c1.7-1.1 3.5-2.1 5.2-3.2 1.3 0.6 2.5 1.2 3.7 1.8 1.4 3 2.7 6 4.1 9-3.3-0.3-6.7-0.7-10-1l-3-6.6z" fill="#29778E" p-id="14015"></path><path d="M413 445c-1.4-3-2.7-6-4.1-9 4.7 1.7 9.4 3.4 14 5.2-1.3 1.6-2.7 3.2-4 4.8-0.4 0.1-0.7 0.2-1.1 0.3-1.6-0.2-3.1-0.5-4.7-0.7 0.1-0.3 0.1-0.4-0.1-0.6z" fill="#153B46" p-id="14016"></path><path d="M369 429.9v-6c3.3 0.6 6.6 1.3 9.9 1.9v4.1c-1.7 0.7-3.3 1.3-5 2-0.7 0.3-1.3 0.7-2 1-0.9-0.9-1.9-1.9-2.9-3z" fill="#21608D" p-id="14017"></path><path d="M470 379c-0.7-1-1.3-2-2-3 0.3-1 0.6-2.1 0.9-3.1 0.7 0.4 1.4 0.7 2.1 1.1h0.1c1 0.2 2 0.5 3 0.8 2.3 1.4 4.6 2.8 7 4.3-0.1 0.7-0.1 1.3-0.2 2-3.7-0.8-7.3-1.4-10.9-2.1z" fill="#1B4C8E" p-id="14018"></path><path d="M457 423c1.3 2.9 6.4 3.4 5 7.9-2 0.7-4 1.4-6 2h-1.9c0.9-3.2 1.9-6.5 2.9-9.9z" fill="#307F8E" p-id="14019"></path><path d="M467.9 405l-7.8 3.9 2.7-12 0.3 0.1c1.7 2.8 3.3 5.4 4.8 8zM430 443.9c0.3 2.4 0.7 4.7 1 7.1l-0.2 0.1c-2.3-0.3-4.6-0.7-6.9-1 0-0.7-0.1-1.5-0.1-2.2 1.3-1.5 2.7-3.1 4-4.6 0.8 0.1 1.5 0.3 2.2 0.6z" fill="#378691" p-id="14020"></path><path d="M459.9 410.9c1.4 2 2.7 4.1 4.1 6.1-1.8 2.2-2.5 6.2-6.9 4 1-3.4 1.9-6.7 2.8-10.1z" fill="#3F8D93" p-id="14021"></path><path d="M427.9 443.1c-1.3 1.5-2.7 3.1-4 4.6-1.6-0.6-3.2-1.2-4.9-1.8 1.3-1.6 2.7-3.2 4-4.8 1.6 0.7 3.2 1.4 4.9 2z" fill="#16525C" p-id="14022"></path><path d="M454.1 433h1.9c0.7 1.7 1.4 3.3 2.1 5-1.7 1-3.3 2-5 3-0.6-0.4-1.3-0.7-1.9-1.1 0.9-2.3 1.9-4.6 2.9-6.9z" fill="#186878" p-id="14023"></path><path d="M465 388c1 2.3 2 4.7 3.1 7l-4.8 2.1-0.3-0.1c0.6-3 1.3-6 2-9z" fill="#29778E" p-id="14024"></path><path d="M471 374c-0.7-0.4-1.4-0.7-2.1-1.1 1-2.4 2-4.9 2.9-7.3-0.3 2.8-0.5 5.6-0.8 8.4z" fill="#112135" p-id="14025"></path><path d="M403.8 530.1c-4-5.3-8.1-10.7-12.1-16 1.1-0.1 2.3-0.1 3.4-0.2 3-3.9 5.9-7.9 8.9-11.8l9.6-0.9c0 0.3 0.1 0.6 0.3 0.8-0.1 2.3-0.3 4.5-0.4 6.8-4.7 1.4-3.7 4.8-2.7 8.1-0.9 3.4-1.8 6.7-2.7 10.1-1.4 1-2.8 2.1-4.3 3.1z" fill="#0A1013" p-id="14026"></path><path d="M403.8 530.1c1.5-1 2.9-2.1 4.4-3.1 2-0.4 3.9-0.7 5.9-1.1 2.6 0 5.3 0.1 7.9 0.1 1 1.5 1.8 3.2 3.1 4.4 1.1 1.1 2.6 1.7 3.9 2.6 0.3 0.7 0.7 1.3 1 2h-4c-3.3-2.1-11.5-1-15 2.1-2.4-2.4-4.8-4.7-7.2-7z" fill="#1F5C8E" p-id="14027"></path><path d="M442.9 559.7c-7.6-5-15.2-9.9-22.8-14.9 1-0.6 2-1.3 3-1.9 3 0.3 6 0.7 8.9 1 2 2 3.9 4.1 5.9 6.1 2 2 4.2 3.9 6.3 5.9-0.5 1.3-0.9 2.6-1.3 3.8z" fill="#1B4C8E" p-id="14028"></path><path d="M423 543c-1 0.6-2 1.3-3 1.9-3-2.6-6-5.2-9.1-7.8 3.5-3.1 11.7-4.2 15-2.1-0.9 2.6-1.9 5.3-2.9 8z" fill="#1E548D" p-id="14029"></path><path d="M395.2 513.9c-1.1 0.1-2.3 0.1-3.4 0.2-1.3-2-2.6-3.9-3.9-5.9 2.4-3 2.4-5.5-1.3-7.4 1.1-0.6 2.2-1.2 3.3-1.9 0.5 0 1-0.1 1.5-0.1 1.9 0.4 3.8 0.7 5.8 1.1-1.2 3.1-2.5 6.1-3.7 9.2-0.5-0.1-1-0.1-1.4-0.2 1 1.7 2 3.3 3.1 5z" fill="#141B21" p-id="14030"></path><path d="M442.9 559.7c0.4-1.3 0.8-2.5 1.3-3.7h2.6c1.5 1 3 2 4.4 3 0.3 1.3 0.6 2.7 0.9 4-3.2-1.1-6.2-2.2-9.2-3.3z" fill="#15274B" p-id="14031"></path><path d="M386.6 500.8c3.6 1.9 3.7 4.4 1.3 7.4L384 504c0-1.1 0-2.1-0.1-3.2h2.7z" fill="#112135" p-id="14032"></path><path d="M383.9 500.8c0 1.1 0 2.1 0.1 3.2-0.3-1-0.7-2-1-3l0.1-0.1c0.2 0 0.5-0.1 0.8-0.1zM381 500.8c0.2-0.6 0.4-1.2 0.6-1.9 0.5 0.7 1 1.3 1.4 2l-0.1 0.1c-0.6 0-1.3-0.1-1.9-0.2z" fill="#15274B" p-id="14033"></path><path d="M515.8 516.1L499 499c-0.8-0.5-1.6-0.9-2.4-1.4v-0.2c0.2-2.3 0.2-4.5 0.5-6.8 0.3-2.9-1.1-3.8-3.7-3.6-1.4-0.7-2.7-1.5-4.1-2.2-2.4-2.1-4.9-4.2-7.3-6.2-0.1-1.1-0.2-2.2-0.4-3.3 3.5-0.7 7-1.5 10.5-2.2h4c1 2.7 2 5.3 3 8 0.3 0.7 0.7 1.3 1 2-0.3 0.7-0.7 1.3-1 2-0.7 7 3.3 11 11 11l3 6c0.7 1 1.4 2.2 2.3 3.1 4.3 4.1 4.4 5.7 0.4 10.9z" fill="#307F8E" p-id="14034"></path><path d="M453.9 480.9c2.8 7.2 5.6 14.5 8.3 21.8 0.6 1.7 0.6 3.5 0.8 5.3-2.7-0.7-5.3-1.3-8-2v-1l0.6-3.3c0.8-4.1-2-7-6.6-6.7-1.7 0.3-3.3 0.7-5 1-1.7-0.7-3.3-1.3-5-2v-3-3c1.1-0.4 2.1-0.9 3.3-1.2 4.1-1.1 5-3.3 2.7-6.9 0-0.7 0-1.4 0.1-2 1 0.1 1.9 0.1 2.9 0.2 1.9 0.9 3.9 1.9 5.9 2.8z" fill="#2A798C" p-id="14035"></path><path d="M515.8 516.1c4-5.2 3.9-6.8-0.5-11-0.9-0.9-1.5-2-2.3-3.1 1.7-1.6 3.3-3.3 5-4.9 1 2.1 2 4.2 3.3 6.8 0.8 0 2.3 0.1 3.7 0.2l4 4c0.3 2.3 0.7 4.7 1 7-0.7 0.7-1.4 1.3-2 2-2 1.6-4 3.3-5.9 4.9-2.2-2.1-4.2-4-6.3-5.9z" fill="#267089" p-id="14036"></path><path d="M455 506c2.7 0.7 5.3 1.3 8 2v2c-1.7 4-3.3 8-5 12l-3 5.1c-1.6-0.4-3.2-0.8-4.9-1.3 0-1-0.1-1.9-0.1-2.9-0.7-2.3-1.3-4.7-2-7 2.3-3.3 4.7-6.6 7-9.9z" fill="#3F8D93" p-id="14037"></path><path d="M469.9 524.1c1 3.6 2.1 7.1 3.1 10.7-0.4 3.1-2.1 4.9-5.1 5.9-2.1 0.7-4 2.2-6 3.4-0.3-1.3-0.7-2.7-1-4v-5c0.7-3.6 1.4-7.3 2-10.9 2.4-0.1 4.7-0.1 7-0.1z" fill="#21608D" p-id="14038"></path><path d="M481.5 475.2c0.1 1.1 0.2 2.2 0.4 3.3-0.9 0.5-1.7 1-2.6 1.5-1.6-0.4-3.1-1.1-4.7-1.3-1.3-0.2-3.5-0.3-3.8 0.4-0.7 1.3-0.6 3.1-0.5 4.7 0.1 2.1 0.4 4.1 0.7 6.2-2.2-2.9-4.2-5.9-6.8-8.5-1.4-1.4-3.6-2-5.4-3 1.1-0.8 2.2-1.7 3.2-2.6 1.8 0 3.7 0.4 5.3-0.1 1.7-0.5 3.1-1.8 4.7-2.8 0.7 0 1.3-0.1 2-0.1l6 0.9c0.5 0.5 1 1 1.5 1.4z" fill="#0F3783" p-id="14039"></path><path d="M469.9 524.1H463c-1.7-0.7-3.4-1.4-5-2.1 1.7-4 3.3-8 5-12 5.3 3.2 5.2 9.1 6.9 14.1z" fill="#307F8E" p-id="14040"></path><path d="M551 514c-2.8 4.9-5.6 9.8-11.9 10.8 0.5-2.3 1-4.5 1.5-6.8l1.2-8.1c0.3-0.5 0.6-1 1-1.5 2.7 1.6 5.4 3.3 8.2 4.9-0.1 0.3-0.1 0.5 0 0.7z" fill="#0A1013" p-id="14041"></path><path d="M470.9 490c-0.2-2.1-0.6-4.1-0.7-6.2-0.1-1.6-0.2-3.4 0.5-4.7 0.3-0.6 2.5-0.5 3.8-0.4 1.6 0.2 3.1 0.8 4.7 1.3-0.7 2.5-1.4 5.1-2.1 7.6-1.1 2.2-2.2 4.5-3.4 6.7-0.8-1.4-1.8-2.8-2.8-4.3z" fill="#0F338A" p-id="14042"></path><path d="M477.2 487.6c0.7-2.5 1.4-5.1 2.1-7.6 0.9-0.5 1.7-1 2.6-1.5 2.4 2.1 4.9 4.2 7.3 6.2-0.7 0.7-1.4 1.5-2.1 2.2-1.5-1.3-3-2.7-5.3-4.8v5.8c-1.6 0-3.1-0.1-4.6-0.3z" fill="#112135" p-id="14043"></path><path d="M462 544c2-1.2 3.8-2.7 6-3.4 3.1-1 4.8-2.7 5.1-5.9l0.9 4.2-3 9c-3-1.2-6-2.6-9-3.9z" fill="#25658B" p-id="14044"></path><path d="M551 513.4c-2.7-1.6-5.4-3.3-8.2-4.9 0.1-1.1 0.1-2.3 0.2-3.4h9.1c0 2.1-0.1 4.2-0.1 6.3l-0.1 0.4c-0.3 0.5-0.6 1-0.9 1.6z" fill="#1A4E7B" p-id="14045"></path><path d="M522 521.9c2-1.6 4-3.3 5.9-4.9 1.3 3.3 2.7 6.5 4 9.8-3.2-1.7-6.6-3.3-9.9-4.9z" fill="#2B6B90" p-id="14046"></path><path d="M540.6 518c-0.5 2.3-1 4.5-1.5 6.8-1.6 0.5-3.3 0.9-4.9 1.4-0.1-3.1-0.1-6.2-0.2-9.3 2.2 0.4 4.4 0.8 6.6 1.1z" fill="#276F8F" p-id="14047"></path><path d="M477.2 487.6l4.5 0.3c0.4 2.4 0.9 4.7 1.3 7.1-3.1-1.4-5.3-0.3-7.2 2.2-0.7-1-1.4-2-2-2.9 1.1-2.2 2.3-4.4 3.4-6.7z" fill="#0F3783" p-id="14048"></path><path d="M471 548l3-9c1.6 6 1.9 12-1 17.7-0.6-0.6-1.3-1.1-1.9-1.7-0.1-2.4-0.1-4.7-0.1-7z" fill="#2B6B90" p-id="14049"></path><path d="M475.9 497.3c1.8-2.5 4.1-3.6 7.2-2.2 0.3 2.8 2.4 6-2.5 8.2-1.5-1.9-3.1-3.9-4.7-6z" fill="#193B73" p-id="14050"></path><path d="M534 516.9c0.1 3.1 0.1 6.2 0.2 9.3-0.7 0.2-1.5 0.3-2.2 0.5-1.3-3.3-2.7-6.5-4-9.8 0.7-0.7 1.4-1.3 2-2 1.3 0.3 2.6 0.7 4 1v1z" fill="#226080" p-id="14051"></path><path d="M462 476c-1.1 0.9-2.2 1.7-3.2 2.6-1.6 0.5-3.2 1-4.7 1.5 0.3-2 0.7-4 1-6.1h6c0.2 0.7 0.6 1.3 0.9 2z" fill="#0A1013" p-id="14052"></path><path d="M455 474c-0.3 2-0.7 4-1 6.1 0 0.3-0.1 0.6-0.1 0.8-2-0.9-4-1.9-6-2.8 1-2 2.1-4.1 3.1-6.1 1.3 0.6 2.7 1.3 4 2z" fill="#153B46" p-id="14053"></path><path d="M493.2 486.9c2.6-0.2 4.1 0.7 3.7 3.6-0.2 2.3-0.3 4.5-0.5 6.8-1.5-1.8-3.1-3.5-4.6-5.3 0.6-1.7 1-3.4 1.4-5.1z" fill="#297B83" p-id="14054"></path><path d="M461.8 563.9c0-0.5-0.1-1.1 0.1-1.4 1-1.5 2.1-2.9 3.1-4.4 0.6 1.6 1.3 3.1 1.9 4.7-1.7 0.3-3.4 0.7-5.1 1.1z" fill="#141B21" p-id="14055"></path><path d="M493.2 486.9c-0.4 1.7-0.9 3.4-1.3 5.1-1.6-1.7-3.3-3.4-4.9-5 0.7-0.7 1.4-1.5 2.1-2.2 1.4 0.7 2.8 1.4 4.1 2.1z" fill="#153B46" p-id="14056"></path><path d="M496.6 497.5c0.8 0.5 1.6 0.9 2.4 1.4-0.8-0.4-1.6-0.9-2.4-1.4z" fill="#297B83" p-id="14057"></path><path d="M551 513.4c0.3-0.5 0.6-1.1 0.9-1.6-0.3 0.8-0.6 1.5-0.9 2.3-0.1-0.3-0.1-0.5 0-0.7z" fill="#141B21" p-id="14058"></path><path d="M534.6 426.9c4.4 6.6 8.8 13.1 13.2 19.7-2.2-0.1-4.4-0.2-6.6-0.2-3.7 0.2-7.5 0.5-11.2 0.7-2.3-0.8-4.6-1.6-6.9-2.5-0.2-1.4-0.3-2.9-0.5-4.6-3.8 0.6-7.2 1.2-10.5 1.8-0.3-0.9-0.6-1.9-1-2.8 2.6-1.4 5.2-2.8 7.8-4.1 1.2 0.4 2.5 0.9 3.7 1.3 3.2 1.2 5.2 0.4 5.4-3.3 0.3-2 0.7-4 1-6 1.8 0.1 3.7 0.1 5.6 0z" fill="#0A1013" p-id="14059"></path><path d="M556.1 478.9c-1.4 0.7-2.8 1.4-4.1 2.1-1.4-2-2.7-4-4.1-6-0.6-2.7-1.3-5.3-1.9-8 2.3-1.3 4.7-2.7 7-4 1 5.3 2.1 10.6 3.1 15.9z" fill="#1F5C8E" p-id="14060"></path><path d="M541.2 446.4c2.2 0.1 4.4 0.2 6.6 0.2 1 2.8 2.1 5.6 3.1 8.3-2.3 1-4.5 2-6.8 3-1-1.4-2-2.7-3.1-4.1 0-2.4 0.1-4.9 0.2-7.4z" fill="#2B6B90" p-id="14061"></path><path d="M544 458c2.3-1 4.5-2 6.8-3 0.7 2.7 1.4 5.3 2.2 8-2.3 1.3-4.7 2.7-7 4l-1-1v-1c-0.4-2.3-0.7-4.7-1-7z" fill="#21608D" p-id="14062"></path><path d="M534.6 426.9c-1.9 0-3.7 0.1-5.6 0.1-0.8-0.7-1.6-1.5-2.3-2.2 1.7-1.6 3.5-3.2 5.2-4.8l2.7 6.9z" fill="#1D2B55" p-id="14063"></path><path d="M373 444c3 0.3 6.3-2.3 9 1 1.7 2.3 3.4 4.7 5 7-1 1-1.8 2.7-2.9 2.9-7.2 1.2-7.4 1.4-3.2 7.5 0.4 0.5 0.7 1.1 1.1 1.6l-4 4h-0.8l-6.9-4.2c-1.2-2.3 2.1-6.7-3.3-7-0.7-1.3-1.3-2.6-2-3.8-2.7-4.7-2.5-5.1 3-7l3-3c0.7 0.3 1.3 0.7 2 1z" fill="#1E548D" p-id="14064"></path><path d="M383 501c-0.5-0.7-1-1.3-1.4-2 0-0.6 0.1-1.3 0.1-1.9 0-0.7-0.1-1.5-0.1-2.2 0.1-0.9 0.1-1.8 0.2-2.8 0.1-1.4 0.3-2.8 0.4-4.2 4.4-0.4 6.4-2.7 5.7-7.3-0.2-1.5 0-3 0-4.5 1 0 1.9 0 2.9-0.1l6 6-3.9 6.9c-0.7 3-1.4 6.1-2.1 9.1-0.4 0.3-0.7 0.6-1.1 0.9-1.1 0.6-2.2 1.2-3.3 1.9h-2.7c-0.1 0-0.4 0.1-0.7 0.2z" fill="#1A4E7B" p-id="14065"></path><path d="M368 446c-5.5 1.8-5.7 2.2-3 7 0.7 1.3 1.4 2.6 2 3.8-0.5 0.1-1 0.4-1.4 0.4-2.7 0-5.4-0.1-8.1-0.1 0.7-2.4 1.4-4.8 2-7.2 0.9-3.6 1.7-7.2 2.5-10.8 2 2.2 4 4.6 6 6.9zM377.2 468h0.8l3 6-2.1 4.2c-1-0.1-1.9-0.1-2.9-0.2-1.8-1.3-3.7-2.7-5.5-4 2.3-2 4.5-4 6.7-6zM369 429.9l3 3c-0.7 1.3-1.4 2.7-2.1 4-1.8-0.2-3.6-0.7-5.3-0.6-0.9 0.1-1.8 1.1-2.7 1.7-0.3-1.7-0.6-3.4-0.8-5.2 2.6-0.8 5.3-1.8 7.9-2.9z" fill="#184E88" p-id="14066"></path><path d="M377.2 468c-2.2 2-4.5 4-6.7 6-0.1-3.4-0.1-6.8-0.2-10.1 2.3 1.3 4.6 2.7 6.9 4.1z" fill="#112135" p-id="14067"></path><path d="M361.9 438.1c0.9-0.6 1.8-1.6 2.7-1.7 1.8-0.1 3.5 0.4 5.3 0.6 0.3 2 0.7 4 1 6l-3 3c-2-2.3-4-4.7-6-7-0.1-0.3-0.1-0.6 0-0.9z" fill="#1B4C8E" p-id="14068"></path><path d="M382.3 487.9c-0.1 1.4-0.3 2.8-0.4 4.2-2.3-0.1-4.6 0.1-6.8-0.3-1.1-0.2-2-1.6-3-2.5 0.9-0.8 1.9-1.6 2.8-2.4h6.1c0.4 0.4 0.9 0.7 1.3 1z" fill="#15274B" p-id="14069"></path><path d="M381 487h-6.1c0.4-3 0.8-6 1.1-9 1 0.1 1.9 0.1 2.9 0.2 0.7 2.9 1.4 5.8 2.1 8.8z" fill="#1D2B55" p-id="14070"></path><path d="M381.6 494.9c0 0.7 0.1 1.5 0.1 2.2 0-0.8 0-1.5-0.1-2.2z" fill="#15274B" p-id="14071"></path><path d="M486.9 386.8c1.8 0.6 3.7 1.2 5.5 1.8 1 2.9-3.1 7.2 2.5 8.6 0.7 2.3 1.3 4.5 2 6.8-2.1 1-4.2 2-6.7 3.2-0.5-3.4-0.9-5.8-1.3-8.2-1.4-1.3-2.7-2.7-4.1-4 0.7-2.6 1.4-5.1 2.1-7.7 0.2-0.2 0.1-0.4 0-0.5z" fill="#1B4C8E" p-id="14072"></path><path d="M497 404c-0.7-2.3-1.3-4.5-2-6.8 7-2.1 8.2-1.5 9.6 4.8 1.3 0 2.8-0.1 4.2 0 1.2 0.1 2.5 0.4 4.3 0.8-1.2 2.5-2.2 4.5-3.1 6.5-2.6-1.4-5.3-2.8-7.9-4.2-1.7-0.4-3.4-0.8-5.1-1.1zM508.8 417.7c3.3-5.2 8.1-2.3 12.9-2.9-2.2 5.3-3.9 10.2-10.6 9.3-0.8-2-1.5-4.2-2.3-6.4z" fill="#184E88" p-id="14073"></path><path d="M508.8 417.7c0.7 2.2 1.5 4.3 2.2 6.5-0.7 0.9-1.3 1.8-2 2.8l-5.1 2.1h-1v-7c0-1.5 0.1-2.9 0.1-4.4 2-0.1 3.9 0 5.8 0z" fill="#1F5C8E" p-id="14074"></path><path d="M504 429l5.1-2.1c1.6 1.4 3.3 2.8 4.9 4.2-1.3 1.9-2.7 3.9-4 5.8-2.6-2.1-6.3-3.5-6-7.9z" fill="#226080" p-id="14075"></path><path d="M482.7 378.9c1.1-2.4 1.7-5.3 3.4-7.1 2.5-2.6 4.1 0.5 5.3 2.1 1.2 1.5 2.3 3.7-1.1 4.2-2.6 0.3-5.1 0.6-7.6 0.8z" fill="#193B73" p-id="14076"></path><path d="M528 433c-0.2 3.7-2.2 4.4-5.4 3.3-1.2-0.5-2.5-0.9-3.7-1.3 0-1.7 0.1-3.4 0.1-5 0.3-0.6 0.6-1.3 0.9-1.9 2.7 1.5 5.4 3.2 8.1 4.9z" fill="#141B21" p-id="14077"></path><path d="M482.7 378.9c2.5-0.2 5.1-0.5 7.6-0.7-1.1 2.9-2.2 5.7-3.3 8.6 0.1 0.2 0.1 0.4 0.1 0.6-1.9-1.2-3.8-2.3-5.7-3.5-0.2-1-0.3-1.9-0.5-2.9 0.1-0.7 0.1-1.3 0.2-2 0.4 0 1 0 1.6-0.1z" fill="#1D2B55" p-id="14078"></path><path d="M503.1 417.6c0 1.5-0.1 2.9-0.1 4.4-1.9 0.2-3.9 0.6-5.8 0.3-1.1-0.2-2.1-1.5-3.2-2.3 1.7-2 3.4-3.9 5-5.9 0.3-0.1 0.6-0.2 0.8-0.5l0.4-0.1c1 1.3 1.9 2.7 2.9 4.1z" fill="#2B6B90" p-id="14079"></path><path d="M528 433c-2.7-1.7-5.4-3.4-8.1-5 2.3-1 4.5-2.1 6.8-3.1 0.8 0.7 1.6 1.5 2.3 2.2-0.4 1.9-0.7 3.9-1 5.9z" fill="#153B46" p-id="14080"></path><path d="M519 429.9c0 1.7-0.1 3.4-0.1 5-2.6 1.4-5.2 2.8-7.8 4.1-0.4-0.1-0.7-0.1-1.1-0.2v-1.9c1.3-1.9 2.7-3.9 4-5.8 1.6-0.3 3.3-0.8 5-1.2z" fill="#25658B" p-id="14081"></path><path d="M500.2 413.5l-0.4 0.1c0.8-2.8 1.6-5.7 2.4-8.5 2.6 1.4 5.3 2.8 7.9 4.2l-9.9 4.2z" fill="#15274B" p-id="14082"></path><path d="M474 374.8c-1-0.3-2-0.5-3-0.8 1 0.3 2 0.5 3 0.8z" fill="#112135" p-id="14083"></path><path d="M471 548c0 2.3 0.1 4.6 0.1 7-4.5 4.1-8.7 1.7-12.9-0.6-0.1-0.8-0.1-1.6-0.2-2.4 4-6.6-3.5-6.3-6.9-10.2 4-0.7 7-1.2 9.9-1.7 0.3 1.3 0.7 2.7 1 4 3 1.2 6 2.6 9 3.9z" fill="#184E88" p-id="14084"></path><path d="M458 551.9c0.1 0.8 0.1 1.6 0.2 2.4-1.2 1.5-2.4 3.1-3.6 4.6h-3.5c-1.5-1-3-2-4.4-3 0.8-2 1.5-4 2.3-6 3 0.7 6 1.4 9 2z" fill="#1B4C8E" p-id="14085"></path><path d="M549.9 487c0.4 2.7 0.7 5.4 1.1 8.2-0.5 0.6-1 1.3-1.5 1.9-2.2 1.6-4.4 3.3-6.5 4.9l-3-3v-4c2.3-3 4.7-6 7-9 1 0.3 2 0.7 2.9 1z" fill="#1F5C8E" p-id="14086"></path><path d="M543 502c2.2-1.6 4.4-3.3 6.5-4.9 0.8 2.7 1.7 5.3 2.5 8h-9.1c0.1-1.1 0.1-2.1 0.1-3.1z" fill="#1E548D" p-id="14087"></path><path d="M549.9 487c-1-0.3-2-0.7-3-1l-2-2c0.4-2.1 0.8-4.2 1.3-6.8-2.3-0.1-3.8-0.2-5.2-0.3-3-0.3-6-0.7-9-1 0-1 0-2-0.1-3v-1c2.3-0.3 4.6-0.7 7-1 3 1.3 6 2.7 8.9 4 1.4 2 2.7 4 4.1 6-0.3 1.6-0.6 3.3-0.9 4.9-0.3 0.5-0.7 0.8-1.1 1.2z" fill="#2B6B90" p-id="14088"></path><path d="M439.8 451.2c0.1 1.3 0.3 2.7 0.4 4-0.6 0.6-1.1 1.2-1.7 1.8-2.5 0.3-5 0.6-7.6 1 0-2.3-0.1-4.7-0.1-7l0.2-0.1c3 0.1 5.9 0.2 8.8 0.3z" fill="#297B83" p-id="14089"></path><path d="M446 445.9c-0.4 0.1-0.8 0.2-1.1 0.3-0.1-0.3-0.2-0.5-0.2-0.8 0-0.1 0.2-0.2 0.3-0.4 0.3 0.3 0.7 0.6 1 0.9z" fill="#FEFEFE" p-id="14090"></path><path d="M461 446c1.2-1.1 2.6-2 3.5-3.3 2-2.8 3.7-5.8 5.6-8.7 1.2-1.8 2.6-3.3 4-5 0.7 1.7 1.3 3.3 2 5-0.7 2-1.3 4-2 6-0.3 1-0.7 2-1 3-1 1.7-2 3.3-3 5l-1 1c-2.8-1-5.5-2-8.1-3z" fill="#307F8E" p-id="14091"></path><path d="M461 446c2.7 1 5.3 2 8 3 0.4 1.8 0.8 3.5 1.2 5.3-1.9 1.2-3.8 2.4-5.2 3.3-1.9-2.5-3.4-4.5-4.9-6.6v-5h0.9z" fill="#378691" p-id="14092"></path><path d="M476 434c-0.7-1.7-1.3-3.3-2-5v-2c3-0.3 6-0.6 9-1v9c-2.4-0.3-4.7-0.7-7-1z" fill="#267089" p-id="14093"></path><path d="M482.9 426c-3 0.3-6 0.6-9 1v-4c0.7-1.7 1.3-3.3 2-5h3c1.3 1.7 2.6 3.4 4 5 0.1 1 0.1 2 0 3z" fill="#307F8E" p-id="14094"></path><path d="M476 418c-0.7 1.7-1.3 3.3-2 5-3.8-0.2-5.8-2.2-6-6 1.7-0.7 3.4-1.4 5-2l3 3zM453.1 440.9c1.7-1 3.3-2 5-3 0.3 0 0.6 0 0.9 0.1 0.3 2.7 0.7 5.3 1 8h-7.9c0.3-1.7 0.7-3.4 1-5.1z" fill="#276F8F" p-id="14095"></path><path d="M459 438c-0.3 0-0.6 0-0.9-0.1-0.7-1.7-1.4-3.3-2.1-5 2-0.7 4-1.4 6-2 3.1 4.2 1.5 6.3-3 7.1z" fill="#378691" p-id="14096"></path><path d="M438.5 457c0.6-0.6 1.1-1.2 1.7-1.8 7.5-1 9.6 5.2 12.9 9.6-0.7 1-1.4 2.1-2.2 3.1l-9 3-0.3-6c-0.9-2.6-2-5.2-3.1-7.9z" fill="#0A1013" p-id="14097"></path><path d="M457.8 465c1.5-1.8 2.9-3.7 4.4-5.5 0.5-0.1 1-0.2 1.6-0.2 0.4 0.3 0.8 0.5 1.2 0.8 1.2 0.8 2.5 1.5 3.7 2.3 0.4 1.2 0.9 2.5 1.3 3.7-0.2 0.9-0.5 1.9-0.7 2.8-2.8 1-5.5 2.1-8.3 3.1-1.1-2.3-2.2-4.7-3.2-7z" fill="#0F3783" p-id="14098"></path><path d="M463.8 459.2c-0.5 0.1-1 0.2-1.6 0.2-2.1-1.8-4.2-3.7-6.2-5.5 1.3-1 2.7-2 4-3 1.5 2 3.1 4.1 4.9 6.6 1.5-0.9 3.3-2.1 5.2-3.3l5.7 3-7.2 5.1c-1.2-0.8-2.5-1.5-3.7-2.3-0.3-0.2-0.7-0.5-1.1-0.8z" fill="#141B21" p-id="14099"></path><path d="M457.8 465c1 2.3 2.1 4.7 3.1 7 0 0.7 0 1.3 0.1 2h-6c-1.3-0.7-2.7-1.3-4-2v-4c0.7-1 1.4-2.1 2.2-3.1 1.5 0 3 0.1 4.6 0.1z" fill="#112135" p-id="14100"></path><path d="M460 451c-1.3 1-2.7 2-4 3-5.8-1.9-6-2.3-3.9-8h7.9v5z" fill="#307F8E" p-id="14101"></path><path d="M382 464c-0.4-0.5-0.7-1.1-1.1-1.6-4.1-6.1-4-6.3 3.2-7.5 1.1-0.2 1.9-1.9 2.9-2.9 4.9-2.6 5.3-6 1-9.1l3-6c1.3 0.1 2.7 0.2 4 0.4 0.1 1.9 0 3.9 0.2 5.8 0.5 3.9 2 6.8 6.8 5.8l1 1c0 6.8 0 6.8 8 9v2c-3 0.7-6 1.3-8.9 2-1.2-1-2.4-2.6-3.7-2.8-1.6-0.3-3.5 0.5-5.2 0.9l-3.3-3.9c-1 0.9-2.2 1.8-3.1 2.8-0.7 0.9-1.1 2-1.7 3-1.1 0.4-2.1 0.8-3.1 1.1z" fill="#25658B" p-id="14102"></path><path d="M388 442.9c4.3 3.1 4 6.5-1 9.1-1.7-2.3-3.4-4.7-5-7l6-2.1zM371 443c-0.3-2-0.7-4-1-6 0.7-1.3 1.4-2.7 2.1-4 0.7-0.3 1.3-0.7 2-1 0.7 1.3 1.3 2.7 2 4-1 2.7-2 5.3-3 8-0.8-0.3-1.4-0.7-2.1-1z" fill="#1F5C8E" p-id="14103"></path><path d="M376 436c-0.7-1.3-1.3-2.7-2-4 1.7-0.7 3.3-1.3 5-2 1.3 3.1 2.7 6.3-3 6z" fill="#1E548D" p-id="14104"></path><path d="M484.9 395c1.4 1.3 2.7 2.7 4.1 4-2.3 1-4.7 2-7 3v-6.2c-3 1.1-4.9 1.9-6.9 2.6 1.1 2.2 2 3.9 2.9 5.6-2.3 1-4.7 2-7 3-1-0.7-2-1.3-3-2-1.6-2.6-3.2-5.3-4.8-7.9l4.8-2.1c2.3-0.8 4.7-1.7 7-2.5 1.3-0.5 2.6-1 4-1.5 2 1.3 3.9 2.7 5.9 4z" fill="#21608D" p-id="14105"></path><path d="M484.9 395c-2-1.3-4-2.7-6-4v-6c0.8-0.4 1.5-0.8 2.3-1.2 1.9 1.2 3.8 2.3 5.7 3.5-0.6 2.6-1.3 5.1-2 7.7z" fill="#1F5C8E" p-id="14106"></path><path d="M481.3 383.8c-0.8 0.4-1.5 0.8-2.3 1.2-1 0-2-0.1-2.9 0-4.7 0.6-6.8-1.2-6.1-6 3.6 0.7 7.2 1.3 10.8 2 0.1 0.9 0.3 1.9 0.5 2.8z" fill="#184E88" p-id="14107"></path><path d="M471 407c2.3-1 4.7-2 7-3h3c1.3 1.7 2.7 3.3 4 5 0 8 0 8 6 8l3 3c1 0.8 2 2.2 3.2 2.3 1.9 0.3 3.9-0.2 5.8-0.3v7c-2.7-0.3-5.3-0.7-8-1h-1c-1.5-6.5-7.2-3.6-11.1-4.9-1.3-1.7-2.6-3.4-4-5 0.7-2.1 1.5-4.2 2.5-7.3-3.9 1.1-6.2 1.7-8.6 2.4-0.5-2.1-1.2-4.2-1.8-6.2z" fill="#25658B" p-id="14108"></path><path d="M473 413.1c2.3-0.7 4.7-1.3 8.6-2.4-1.1 3.1-1.8 5.2-2.5 7.3h-3l-3-3c-0.1-0.7-0.1-1.3-0.1-1.9z" fill="#378691" p-id="14109"></path><path d="M402 449c-4.8 1-6.3-1.9-6.8-5.8-0.2-1.9-0.1-3.9-0.2-5.8 1.7 0 3.3 0.1 5 0.1l3 6.6c-0.3 1.6-0.7 3.2-1 4.9z" fill="#2B6B90" p-id="14110"></path><path d="M402 449c0.3-1.7 0.7-3.3 1-5 3.3 0.3 6.7 0.7 10 1 0.1 0.2 0.2 0.3 0.2 0.6-1.2 6.6-1.3 6.6-7.8 4.7-0.8-0.2-1.6-0.2-2.4-0.3-0.3-0.4-0.7-0.7-1-1z" fill="#307F8E" p-id="14111"></path><path d="M403 450c0.8 0.1 1.6 0.1 2.4 0.3 6.5 1.9 6.6 1.8 7.8-4.7 1.6 0.2 3.1 0.5 4.7 0.7-0.3 3.9-0.6 7.8-1 11.7-2 0.3-4 0.7-6 1-7.9-2.3-7.9-2.3-7.9-9z" fill="#276F8F" p-id="14112"></path><path d="M417 458c0.3-3.9 0.6-7.8 1-11.7 0.4-0.1 0.7-0.2 1.1-0.3 1.6 0.6 3.2 1.2 4.9 1.8 0 0.7 0.1 1.5 0.1 2.2-2.5 1.5-2.7 3.2-0.2 4.9 2 1.4 4.1 2.7 6.2 4.1l-1 1h-8c-1.4-0.7-2.8-1.4-4.1-2z" fill="#29778E" p-id="14113"></path><path d="M430 459c-2.1-1.4-4.1-2.7-6.2-4.1-2.5-1.7-2.4-3.4 0.2-4.9 2.3 0.3 4.6 0.7 6.9 1 0 2.3 0.1 4.7 0.1 7l-1 1z" fill="#2A798C" p-id="14114"></path><path d="M455 506c-2.3 3.3-4.7 6.7-7 10-3 0.7-6 1.3-9 2-1.7 0.3-3.3 0.7-5 1-0.7-0.3-1.3-0.7-2-1v-1.9c3.4-3.3 2.9-7.2 0.8-10.6-1.9-3-4.5-0.8-6.8 0.4-1 3.3-2 6.7-3 10-0.7 0.3-1.3 0.7-2 1-2.5-2.7-5-5.5-7.4-8.2 0.1-2.3 0.3-4.5 0.4-6.8h7.6c-0.3-1.9-0.4-3.3-0.6-4.7 0.6-0.8 1.2-1.7 1.8-2.5l7.2 1.2c4.1 4.4 6.3-0.1 9-2 1.7 0.7 3.3 1.3 5 2v3c0 6.9 0 6.8 7 6.1 1.3-0.1 2.6 0 4-0.1v1.1z" fill="#29778E" p-id="14115"></path><path d="M413.7 501.2l-9.6 0.9c-0.7-1-1.4-2.1-2-3.1 0.3-2.3 0.7-4.7 1-7v-7h7c0.7 0.7 1.3 1.4 2 2 0.7 3.3 1.3 6.7 2 10-0.2 1.4-0.3 2.8-0.4 4.2z" fill="#25658B" p-id="14116"></path><path d="M402 499c0.7 1 1.4 2.1 2 3.1-3 3.9-5.9 7.9-8.9 11.8-1-1.6-2.1-3.3-3.1-4.9 0.5 0.1 1 0.1 1.4 0.2 1.2-3.1 2.5-6.1 3.7-9.2 1.7-0.4 3.3-0.7 4.9-1z" fill="#226080" p-id="14117"></path><path d="M413.6 508.8c2.5 2.7 5 5.5 7.4 8.2v1h-4.9c-1.7-0.4-3.5-0.7-5.2-1.1-1-3.3-2.1-6.7 2.7-8.1z" fill="#267089" p-id="14118"></path><path d="M410.9 516.9c1.7 0.4 3.5 0.7 5.2 1.1-0.7 2.6-1.3 5.3-2 7.9-2 0.4-3.9 0.7-5.9 1.1 0.9-3.4 1.8-6.7 2.7-10.1z" fill="#25658B" p-id="14119"></path><path d="M413.7 501.2l0.3-4.2c0.4-0.1 0.8-0.2 1.1-0.3 2 0.2 3.9 0.4 5.9 0.6 0.2 1.4 0.4 2.8 0.6 4.7H414c-0.2-0.2-0.3-0.5-0.3-0.8z" fill="#3F8D93" p-id="14120"></path><path d="M430 535c-0.3-0.7-0.7-1.3-1-2 0.7-2.3 1.3-4.6 2-6.9 1.3-0.4 2.6-0.7 4-1.1h4c-0.3 2.7-0.6 5.3-0.9 8-2 1-4.1 2-6.1 3-0.7-0.3-1.4-0.7-2-1z" fill="#25658B" p-id="14121"></path><path d="M430 535c0.6 0.3 1.3 0.7 1.9 1v8c-3-0.3-6-0.7-8.9-1 1-2.7 2-5.3 3-8h4z" fill="#184E88" p-id="14122"></path><path d="M431 526c-0.7 2.3-1.3 4.6-2 6.9-1.3-0.8-2.9-1.5-3.9-2.6-1.2-1.3-2.1-2.9-3.1-4.4v-1h7.9c0.4 0.4 0.7 0.8 1.1 1.1z" fill="#21608D" p-id="14123"></path><path d="M422 525v1c-2.6 0-5.3-0.1-7.9-0.1 0.7-2.6 1.3-5.3 2-7.9h4.9c0.3 2.3 0.7 4.7 1 7z" fill="#378691" p-id="14124"></path><path d="M431.9 544v-8c2-1 4.1-2 6.1-3 1.3-0.3 2.7-0.6 4-1 0.3 1.3 0.7 2.6 1 4-0.8 2.8-1.6 5.6-2.3 8 4 1.8 8.8 0.3 8.2 5.9-0.8 2-1.5 4-2.3 6H444c-2.1-2-4.3-3.9-6.3-5.9-1.9-1.9-3.8-4-5.8-6z" fill="#2B6B90" p-id="14125"></path><path d="M402 499l-4.8 0.9c-1.9-0.4-3.8-0.7-5.8-1.1-0.2-0.2-0.3-0.5-0.4-0.7 0.7-3 1.4-6.1 2.1-9.1l9.9 3c-0.4 2.3-0.7 4.6-1 7z" fill="#21608D" p-id="14126"></path><path d="M391 498.1c0.1 0.3 0.3 0.5 0.4 0.7-0.5 0-1 0.1-1.5 0.1 0.4-0.3 0.7-0.6 1.1-0.8z" fill="#112135" p-id="14127"></path><path d="M532 472v1c-3 1.3-6 2.6-9 4h-4c-0.3-0.7-0.7-1.3-1-2-0.4-5-0.6-10.1-1.3-15.1-0.1-1.1-2.1-2.8-3-2.6-1.3 0.2-3.4 1.9-3.3 2.8 0.2 2.5 1.4 5 2.3 8-0.6 1.6-1.6 4.3-2.6 6.9-0.7 0.3-1.3 0.7-2 1-2 0.3-4 0.6-6 1-0.5-3.6-3-4.2-6-4h-4c-1.1-4-1.7-7.9 2-11 1.3-1.3 2.7-2.6 4-4 1.3-1.7 2.7-3.3 4-5 0.7-1.9 1.4-3.9 2.1-5.8 3-1.1 6-2.2 8.9-3.3 2 1.4 4 2.8 6 4.3-0.2 3 0.6 5.3 4 5.8-1 1.9-0.8 3.1 1.7 3 2.8-0.1 5.5 0 8.3 0-0.3 2.7-0.7 5.3-1 8-0.1 2.3-0.1 4.7-0.1 7z" fill="#29778E" p-id="14128"></path><path d="M525 504c-1.4-0.1-2.9-0.1-3.7-0.2-1.3-2.6-2.3-4.7-3.3-6.8-2.7-0.4-5.3-0.7-8-1.1-7.7 0-11.7-4-11-11l12 3c1.2 1.3 2.2 3.2 3.7 3.8 1.5 0.7 3.5 0.1 5.3 0.1 0.1 1.4 0.2 2.9 0.2 4.4 2 0.6 3.9 1.1 5.7 1.6-0.3 2.2-0.6 4.2-0.9 6.2z" fill="#378691" p-id="14129"></path><path d="M494 462c-3.7 3.1-3.1 7-2 11-3.5 0.7-7 1.5-10.5 2.2-0.5-0.4-1-0.8-1.5-1.3 0.3-3 0.7-5.9 1-8.9 5.4 0.6 4.8-4 6-7 2.3 1.3 4.7 2.7 7 4z" fill="#2A798C" p-id="14130"></path><path d="M511 488l-12-3c0.3-0.7 0.7-1.3 1-2 2.7-1 5.3-2 8-3l2 2c0.3 2 0.6 4 1 6zM496 473c3-0.2 5.5 0.4 6 4-1 1.3-2 2.7-3 4-1-2.7-2-5.3-3-8z" fill="#3F8D93" p-id="14131"></path><path d="M499 481c1-1.3 2-2.7 3-4 2-0.3 4-0.6 6-1v3.9c-2.7 1-5.3 2-8 3-0.4-0.6-0.7-1.2-1-1.9z" fill="#297B83" p-id="14132"></path><path d="M510 496c2.7 0.4 5.3 0.7 8 1.1-1.7 1.6-3.3 3.3-5 4.9l-3-6z" fill="#29778E" p-id="14133"></path><path d="M455 505c-1.3 0-2.7-0.1-4 0.1-7 0.8-7 0.8-7-6.1 2.1 0.6 4.3 1.2 7.6 2.1-1.1-2.7-1.9-4.4-2.6-6.1 4.6-0.3 7.5 2.6 6.6 6.7-0.2 1-0.4 2.2-0.6 3.3z" fill="#297B83" p-id="14134"></path><path d="M444.9 479.9c2.3 3.5 1.4 5.8-2.7 6.9-1.1 0.3-2.2 0.8-3.3 1.2l-6-2.1 2.1-6c3.3 1.6 6.6 2.7 9.9 0z" fill="#307F8E" p-id="14135"></path><path d="M444.9 479.9c-3.3 2.6-6.6 1.6-9.9 0 0-0.7 0-1.3-0.1-2 2.3-1.3 4.6-2.7 6.9-4 1 1.3 2.1 2.6 3.1 3.9 0.1 0.8 0 1.5 0 2.1z" fill="#186878" p-id="14136"></path><path d="M445 477.9c-1-1.3-2.1-2.6-3.1-3.9 0.1-1 0.1-2 0.1-3l9-3v4c-1 2-2.1 4.1-3.1 6.1-1-0.1-1.9-0.1-2.9-0.2z" fill="#16525C" p-id="14137"></path><path d="M439 494c-2.7 1.9-4.9 6.3-9 2v-3c0.3-0.7 0.7-1.4 1-2.1h8v3.1z" fill="#297B83" p-id="14138"></path><path d="M439 491h-8c0.6-1.7 1.3-3.4 1.9-5.1l6 2.1c0.1 1 0.1 2 0.1 3zM449 494.9c0.7 1.7 1.5 3.4 2.6 6.1-3.3-0.9-5.5-1.5-7.6-2.1v-3c1.7-0.3 3.3-0.6 5-1z" fill="#3F8D93" p-id="14139"></path><path d="M543 502v3c-0.1 1.1-0.1 2.3-0.2 3.4-0.3 0.5-0.6 1-1 1.5-2.6 2-5.2 4-7.9 6-1.3-0.3-2.6-0.7-4-1-0.3-2.3-0.7-4.7-1-7 4.1-0.6 4.1-4.1 5-6.9l6-2.1 3.1 3.1z" fill="#25658B" p-id="14140"></path><path d="M534 501c-1 2.8-0.9 6.4-5 6.9l-4-4c0.3-2 0.7-4 1-6 1.7-0.7 3.3-1.3 5-2 1 1.8 2 3.5 3 5.1z" fill="#276F8F" p-id="14141"></path><path d="M443 536c-0.3-1.3-0.7-2.6-1-4 1.8-3.2 3.8-6.2 8.1-6.2 1.6 0.4 3.2 0.8 4.9 1.3 0.7 2.6 1.4 5.2 2.1 7.9-2.1 0.1-4.6 1-6.2 0.2-3.1-1.6-5.4-0.6-7.9 0.8z" fill="#21608D" p-id="14142"></path><path d="M457 535c-0.7-2.6-1.4-5.2-2.1-7.9l3-5.1c1.7 0.7 3.4 1.4 5 2.1-0.7 3.6-1.4 7.3-2 10.9H457z" fill="#276F8F" p-id="14143"></path><path d="M450.1 525.8c-4.3 0-6.2 3-8.1 6.2-1.3 0.3-2.7 0.6-4 1 0.3-2.7 0.6-5.3 0.9-8 0-0.7 0.1-1.4 0.1-2h10.9c0.1 0.9 0.1 1.9 0.2 2.8z" fill="#29778E" p-id="14144"></path><path d="M450 523h-10.9v-5c3-0.7 6-1.3 9-2 0.5 2.3 1.2 4.7 1.9 7z" fill="#307F8E" p-id="14145"></path><path d="M457 535h4v5c-2.9 0.5-5.9 1-9.9 1.7 3.4 3.9 10.9 3.6 6.9 10.2-3-0.7-6-1.3-9-2 0.6-5.7-4.3-4.1-8.2-5.9 0.7-2.5 1.5-5.3 2.3-8 2.5-1.4 4.8-2.4 7.9-0.8 1.4 0.8 3.9-0.1 6-0.2z" fill="#1F5C8E" p-id="14146"></path><path d="M481 465c-0.3 3-0.7 5.9-1 8.9l-6-0.9v-8.1c0.9-1.7 1.9-3.4 2.8-5l4.2 5.1z" fill="#378691" p-id="14147"></path><path d="M461 474c0-0.7 0-1.3-0.1-2 2.8-1 5.5-2.1 8.3-3.1 0.9 1.4 1.9 2.8 2.8 4.2-1.5 1-3 2.3-4.7 2.8-1.6 0.5-3.5 0.1-5.3 0.1-0.3-0.7-0.7-1.3-1-2z" fill="#0F338A" p-id="14148"></path><path d="M472 473.1c-0.9-1.4-1.9-2.8-2.8-4.2 0.2-0.9 0.5-1.9 0.7-2.8 1.3-0.4 2.7-0.8 4-1.2v8.1c-0.6 0-1.3 0-1.9 0.1z" fill="#307F8E" p-id="14149"></path><path d="M534 516c2.6-2 5.2-4 7.9-6l-1.2 8.1c-2.2-0.4-4.4-0.8-6.6-1.1-0.1-0.4-0.1-0.7-0.1-1z" fill="#1F5C8E" p-id="14150"></path><path d="M541.2 446.4c-0.1 2.5-0.2 5-0.2 7.5-2.3 0.7-4.6 1.4-7 2.1-1.4-2-2.7-4-4.1-6v-2.9c3.8-0.2 7.5-0.4 11.3-0.7z" fill="#378691" p-id="14151"></path><path d="M513 443.9c-3 1.1-6 2.2-8.9 3.3-2-1.1-4-2.1-6.1-3.2 0.4-0.9 0.7-1.8 1.1-2.8 3.6-0.8 7.3-1.5 10.9-2.3 0.4 0.1 0.7 0.1 1.1 0.2 0.3 0.9 0.6 1.9 1 2.8 0.3 0.7 0.6 1.4 0.9 2z" fill="#16525C" p-id="14152"></path><path d="M530 447.1v2.9c-2.3 1.3-4.6 2.7-7 4-3.4-0.5-4.2-2.8-4-5.8 1.4-1.2 2.7-2.3 4.1-3.5l6.9 2.4z" fill="#2A798C" p-id="14153"></path><path d="M523.1 444.7c-1.4 1.2-2.7 2.3-4.1 3.5-2-1.4-4-2.8-6-4.3-0.3-0.7-0.6-1.3-1-2 3.4-0.6 6.8-1.2 10.5-1.8 0.3 1.7 0.4 3.2 0.6 4.6z" fill="#153B46" p-id="14154"></path><path d="M547.9 475c-3-1.3-6-2.7-8.9-4 2-1.7 4-3.3 6-5l1 1c0.6 2.7 1.3 5.3 1.9 8z" fill="#25658B" p-id="14155"></path><path d="M534 456c2.3-0.7 4.6-1.4 7-2.1 1 1.4 2 2.7 3.1 4.1 0.3 2.3 0.6 4.7 0.9 7h-13c0.3-2.7 0.7-5.3 1-8 0.3-0.3 0.6-0.7 1-1z" fill="#276F8F" p-id="14156"></path><path d="M532 465h13v1c-2 1.7-4 3.3-6 5-2.3 0.3-4.6 0.7-7 1v-7z" fill="#267089" p-id="14157"></path><path d="M382 464c1-0.3 2-0.7 3-1v2.9l-3 8.1h-1l-3-6 4-4z" fill="#21608D" p-id="14158"></path><path d="M410 485h-7c-2-1-4-2-6-2.9l-6-6c0.3-0.7 0.7-1.4 1-2.1 4.3 1.4 8.7 2.7 13 4.1 2.1 1.9 6.1 2.6 5 6.9z" fill="#29778E" p-id="14159"></path><path d="M381 474h1l6 2.1c0 1.5-0.2 3 0 4.5 0.7 4.6-1.3 6.9-5.7 7.3-0.4-0.3-0.9-0.6-1.3-0.9-0.7-2.9-1.4-5.9-2.1-8.8l2.1-4.2z" fill="#1E548D" p-id="14160"></path><path d="M388 476.1l-6-2.1 3-8.1c2.3 0.7 4.7 1.4 7 2.1v6c-0.3 0.7-0.7 1.4-1 2.1h-3z" fill="#276F8F" p-id="14161"></path><path d="M397 482.1c2 1 4 2 6 2.9v7l-9.9-3 3.9-6.9z" fill="#1F5C8E" p-id="14162"></path><path d="M485 409c-1.3-1.7-2.7-3.3-4-5 0.3-0.7 0.7-1.3 1-2 2.3-1 4.7-2 7-3 0.4 2.4 0.8 4.8 1.3 8.2 2.5-1.2 4.6-2.2 6.7-3.2 1.7 0.4 3.4 0.7 5.2 1.1-0.8 2.8-1.6 5.7-2.4 8.5-0.2 0.3-0.4 0.5-0.8 0.5-2.7-1.4-5.4-2.7-8-4.1-1.5-3.5-3.8-2.1-6-1z" fill="#1E548D" p-id="14163"></path><path d="M510 438.9c-3.6 0.8-7.3 1.5-10.9 2.3-1.4-4.4-2.7-8.8-4.1-13.2 2.7 0.3 5.3 0.7 8 1h1c-0.3 4.4 3.4 5.8 6 8v1.9z" fill="#276F8F" p-id="14164"></path><path d="M491 410c2.7 1.4 5.3 2.7 8 4.1-1.7 2-3.4 3.9-5 5.9l-3-3v-7z" fill="#1F5C8E" p-id="14165"></path><path d="M544.9 484l2 2c-2.3 3-4.7 6-7 9-0.7-0.3-1.3-0.7-2-1-1-4-3.7-8.5 3.1-10.1 1.3 0.1 2.6 0.1 3.9 0.1z" fill="#21608D" p-id="14166"></path><path d="M538 494c0.7 0.3 1.3 0.7 2 1v4l-6 2.1-3-5.1v-1c2.3-0.3 4.6-0.7 7-1z" fill="#307F8E" p-id="14167"></path><path d="M538 494c-2.3 0.3-4.7 0.7-7 1-2.7-5-3.6-10 0-15 0.4-1.3 0.7-2.7 1.1-4 3 0.3 6 0.7 9 1v6.9c-6.8 1.6-4.1 6.1-3.1 10.1z" fill="#276F8F" p-id="14168"></path><path d="M532 476c-0.4 1.3-0.7 2.7-1.1 4h-8c0-1 0-2-0.1-3 3-1.3 6-2.6 9-4 0.2 1 0.2 2 0.2 3z" fill="#3F8D93" p-id="14169"></path><path d="M541 483.9V477c1.5 0.1 2.9 0.1 5.2 0.3-0.5 2.5-0.9 4.6-1.3 6.8-1.3-0.1-2.6-0.1-3.9-0.2z" fill="#307F8E" p-id="14170"></path><path d="M430 459l1-1c2.5-0.3 5-0.6 7.6-1 1.1 2.6 2.1 5.3 3.2 7.9-1.9 0.3-3.8 0.8-5.7 1-2 0.2-4 0-6 0l-1-1V460c0.2-0.3 0.5-0.7 0.9-1zM483 423c3.8 1.3 9.5-1.6 11.1 4.9-2.7 2.9-1.1 9.4-6.4 8.7 0.1 3.3 0.3 6.3 0.4 9.3l-15-3c0.3-1 0.7-2 1-3 3-1.7 6-3.3 9-5v-9c-0.1-0.9-0.1-1.9-0.1-2.9z" fill="#378691" p-id="14171"></path><path d="M473 443l15 3c0.7 1 1.4 2 2 3v3c-1 1.7-2 3.3-3 5-3.4 0-6.8 0.1-10.1 0.1l-0.1 0.1c1.4-6.7 1.4-6.7-5.4-8.9-0.5-0.1-0.9-0.2-1.4-0.3 1-1.7 2-3.4 3-5z" fill="#2A798C" p-id="14172"></path><path d="M470 448c0.5 0.1 1 0.1 1.4 0.3 6.8 2.2 6.8 2.2 5.4 8.9-0.3 0-0.7 0-1 0.1l-5.7-3c-0.4-1.8-0.8-3.5-1.2-5.3 0.4-0.3 0.7-0.7 1.1-1zM483 435c-3 1.7-6 3.3-9 5 0.7-2 1.3-4 2-6 2.3 0.3 4.6 0.7 7 1z" fill="#29778E" p-id="14173"></path><path d="M430 466c2 0 4 0.1 6 0 1.9-0.2 3.8-0.6 5.7-1l0.3 6c0 1-0.1 2-0.1 3-2.3 1.3-4.6 2.7-6.9 4-6.1-2.8-7.7-6.6-5-12z" fill="#2A798C" p-id="14174"></path><path d="M475.8 457.3c0.3-0.1 0.6-0.1 1-0.1l0.1-0.1c0 0.9 0 1.9-0.1 2.8-0.9 1.7-1.9 3.4-2.8 5-1.3 0.4-2.7 0.8-4 1.2-0.4-1.2-0.9-2.5-1.3-3.7 2.3-1.7 4.7-3.4 7.1-5.1z" fill="#153B46" p-id="14175"></path><path d="M463.8 459.2c0.4 0.3 0.8 0.5 1.2 0.8-0.4-0.2-0.8-0.5-1.2-0.8z" fill="#1D2B55" p-id="14176"></path><path d="M417 458c1.3 0.7 2.7 1.4 4 2 0.3 1.7 0.7 3.3 1 5-1.7 1.3-3.3 2.6-5 4-2-0.7-4-1.4-6-2 0-2 0-4-0.1-6 0-0.7 0-1.3 0.1-2 2-0.4 4-0.7 6-1z" fill="#307F8E" p-id="14177"></path><path d="M392 467.9c-2.3-0.7-4.7-1.4-7-2.1v-2.9c0.5-1 1-2.1 1.7-3 0.9-1.1 2.1-1.9 3.1-2.8l3.3 3.9c0 2 0 3.9 0.1 5.9-0.5 0.3-0.8 0.7-1.2 1z" fill="#1A4E7B" p-id="14178"></path><path d="M393.1 466.9c0-2 0-3.9-0.1-5.9 1.8-0.3 3.6-1.2 5.2-0.9 1.4 0.3 2.5 1.8 3.7 2.8v4h-8.8z" fill="#307F8E" p-id="14179"></path><path d="M402 466.9v-4c3-0.7 6-1.3 8.9-2 0 2 0 4 0.1 6-2.3 0.7-4.7 1.3-7 2-0.7-0.6-1.4-1.3-2-2z" fill="#267089" p-id="14180"></path><path d="M482 402c-0.3 0.7-0.7 1.3-1 2h-3c-0.9-1.7-1.7-3.4-2.9-5.6 2-0.8 3.9-1.5 6.9-2.6v6.2z" fill="#2B6B90" p-id="14181"></path><path d="M490 449c-0.7-1-1.4-2-2-3-0.1-3-0.2-6-0.4-9.3 5.3 0.7 3.7-5.8 6.4-8.7h1c1.4 4.4 2.7 8.8 4.1 13.2-0.4 0.9-0.7 1.9-1.1 2.8-1 1.3-2.1 2.7-3.1 4-1.6 0.3-3.3 0.7-4.9 1z" fill="#29778E" p-id="14182"></path><path d="M491 410v7c-6 0-6 0-6-8 2.2-1.1 4.5-2.5 6 1z" fill="#21608D" p-id="14183"></path><path d="M422 465c-0.3-1.7-0.7-3.3-1-5h8v4.9c-2.4 0.1-4.7 0.1-7 0.1z" fill="#3F8D93" p-id="14184"></path><path d="M422 525c-0.3-2.3-0.7-4.7-1-7v-1c0.7-0.3 1.3-0.7 2-1 2 0 4-0.1 6-0.1 1 0.1 1.9 0.1 2.9 0.2v1.9c-0.7 2.3-1.4 4.7-2 7H422z" fill="#276F8F" p-id="14185"></path><path d="M431.9 516.1c-1-0.1-1.9-0.1-2.9-0.2l-3-9.9c2.2-1.2 4.9-3.5 6.8-0.4 2 3.3 2.6 7.2-0.9 10.5z" fill="#3F8D93" p-id="14186"></path><path d="M421 497.2c-2-0.2-3.9-0.4-5.9-0.6 2.7-3 5.3-6.1 8-9.1 0.2 0.8 0.4 1.5 0.5 2.3-0.3 1.6-0.6 3.2-0.9 4.9-0.5 0.9-1.1 1.7-1.7 2.5z" fill="#112135" p-id="14187"></path><path d="M426 506l3 9.9c-2 0-4 0.1-6 0.1 1-3.3 2-6.7 3-10z" fill="#307F8E" p-id="14188"></path><path d="M422.8 494.7c0.3-1.6 0.6-3.2 0.9-4.9 2.1 1 4.2 2.1 6.3 3.1v3c-2.4-0.3-4.8-0.7-7.2-1.2z" fill="#378691" p-id="14189"></path><path d="M439 518v5c0 0.7-0.1 1.4-0.1 2h-4c-0.3-2-0.7-4-1-6 1.7-0.4 3.4-0.7 5.1-1z" fill="#2B6B90" p-id="14190"></path><path d="M434 519c0.3 2 0.7 4 1 6-1.3 0.4-2.6 0.7-4 1.1l-1-1c0.7-2.3 1.4-4.7 2-7 0.6 0.2 1.3 0.5 2 0.9z" fill="#3F8D93" p-id="14191"></path><path d="M410 485c1.1-4.3-2.8-5-5-7 0.3-1 0.7-2 1-3 1.3-0.3 2.7-0.7 4-1h4c-0.6 1.5-1.2 2.9-1.6 4.1 3 2.1 5.8 4 8.6 5.9l-9 3-2-2z" fill="#2B6B90" p-id="14192"></path><path d="M412 487l9-3 2.1 3.6c-2.7 3-5.3 6.1-8 9.1-0.4 0.1-0.8 0.2-1.1 0.3-0.7-3.3-1.3-6.7-2-10z" fill="#226080" p-id="14193"></path><path d="M522.9 477v3c-3.4 2.4-7.1 4.7-3.4 9.6 0.4 0.6 0.3 1.6 0.4 2.4-1.8 0-3.8 0.5-5.3-0.1-1.5-0.7-2.5-2.5-3.7-3.8-0.3-2-0.6-4-1-6 3-1.7 6-3.3 9-5 1.4-0.1 2.7-0.1 4-0.1z" fill="#307F8E" p-id="14194"></path><path d="M510 475c1-2.6 2-5.3 2.6-6.9-0.9-2.9-2.1-5.4-2.3-8-0.1-0.9 2.1-2.6 3.3-2.8 0.9-0.1 2.9 1.6 3 2.6 0.7 5 0.9 10 1.3 15.1H510z" fill="#2A798C" p-id="14195"></path><path d="M490 449c1.6-0.3 3.2-0.7 4.9-1 2.4 1.7 4.7 3.4 7.1 5-1.3 1.7-2.7 3.3-4 5-2.7-2-5.3-4-8-6v-3z" fill="#3F8D93" p-id="14196"></path><path d="M490 452c2.7 2 5.3 4 8 6-1.3 1.3-2.7 2.6-4 4-2.3-1.3-4.7-2.7-7-4v-1c1-1.7 2-3.4 3-5z" fill="#307F8E" p-id="14197"></path><path d="M534 456l-1 1c-2.8 0-5.5-0.1-8.3 0-2.5 0.1-2.8-1.1-1.7-3 2.3-1.3 4.6-2.7 7-4 1.3 2 2.6 4 4 6z" fill="#267089" p-id="14198"></path><path d="M510 475h8c0.3 0.7 0.7 1.3 1 2-3 1.7-6 3.3-9 5l-2-2v-3.9c0.6-0.4 1.3-0.8 2-1.1z" fill="#378691" p-id="14199"></path><path d="M502 453c-2.4-1.7-4.7-3.4-7.1-5 1-1.3 2.1-2.7 3.1-4 2 1.1 4 2.1 6.1 3.2-0.7 1.9-1.4 3.9-2.1 5.8z" fill="#186878" p-id="14200"></path><path d="M520 492c-0.1-0.8 0.1-1.8-0.4-2.4-3.8-5 0-7.2 3.4-9.6h8c-3.6 5-2.6 10 0 15v1c-1.7 0.7-3.3 1.3-5 2-1.8-0.5-3.7-1-5.7-1.6-0.2-1.6-0.2-3-0.3-4.4z" fill="#29778E" p-id="14201"></path><path d="M487 457v1c-1.2 3-0.6 7.6-6 7l-4.2-5.1c0-0.9 0-1.9 0.1-2.8 3.3-0.1 6.7-0.1 10.1-0.1z" fill="#3F8D93" p-id="14202"></path><path d="M423.1 487.6L421 484c-2.8-1.9-5.6-3.8-8.6-5.9 0.5-1.2 1.1-2.7 1.6-4.1 2.9-0.5 5-1.5 3-5 1.7-1.3 3.3-2.6 5-4 2.3 0 4.7-0.1 7-0.1l1 1c-2.7 5.5-1.1 9.2 5 12 0 0.7 0 1.3 0.1 2l-2.1 6c-0.6 1.7-1.3 3.4-1.9 5.1-0.3 0.7-0.7 1.4-1 2.1-2.1-1-4.2-2.1-6.3-3.1-0.3-0.9-0.5-1.7-0.7-2.4z" fill="#29778E" p-id="14203"></path><path d="M406 475c-0.3 1-0.7 2-1 3-4.3-1.4-8.7-2.7-13-4.1v-6l1.1-1.1h8.9c0.7 0.7 1.3 1.4 2 2.1 0.6 2.1 1.3 4.1 2 6.1z" fill="#21608D" p-id="14204"></path><path d="M417 469c2.1 3.5 0 4.5-3 5h-4c0.3-2.3 0.7-4.7 1-7 2 0.6 4 1.3 6 2z" fill="#267089" p-id="14205"></path><path d="M411 467c-0.3 2.3-0.7 4.7-1 7-1.3 0.3-2.7 0.7-4 1-0.7-2-1.3-4-2-6 2.3-0.7 4.6-1.3 7-2z" fill="#25658B" p-id="14206"></path></svg>